note_on channel=0 note=83 velocity=127 time=0
note_off channel=0 note=83 velocity=0 time=346
note_on channel=0 note=49 velocity=127 time=0
note_off channel=0 note=49 velocity=0 time=692
note_on channel=0 note=81 velocity=127 time=0
note_off channel=0 note=81 velocity=0 time=692
note_on channel=0 note=45 velocity=127 time=0
note_off channel=0 note=45 velocity=0 time=692
note_on channel=0 note=80 velocity=127 time=0
note_off channel=0 note=80 velocity=0 time=346
note_on channel=0 note=81 velocity=127 time=0
note_off channel=0 note=81 velocity=0 time=346
note_on channel=0 note=83 velocity=127 time=0
note_off channel=0 note=83 velocity=0 time=346
note_on channel=0 note=81 velocity=127 time=0
note_off channel=0 note=81 velocity=0 time=692
note_on channel=0 note=73 velocity=127 time=0
note_off channel=0 note=73 velocity=0 time=692
note_on channel=0 note=54 velocity=127 time=0
note_off channel=0 note=54 velocity=0 time=692
note_on channel=0 note=81 velocity=127 time=0
note_off channel=0 note=81 velocity=0 time=173
note_on channel=0 note=81 velocity=127 time=0
note_off channel=0 note=81 velocity=0 time=173
note_on channel=0 note=74 velocity=127 time=0
note_off channel=0 note=74 velocity=0 time=4153
note_on channel=0 note=66 velocity=127 time=0
note_off channel=0 note=66 velocity=0 time=692
note_on channel=0 note=52 velocity=127 time=0
note_off channel=0 note=52 velocity=0 time=346
note_on channel=0 note=80 velocity=127 time=0
note_off channel=0 note=80 velocity=0 time=692
note_on channel=0 note=83 velocity=127 time=0
note_off channel=0 note=83 velocity=0 time=346
note_on channel=0 note=52 velocity=127 time=0
note_off channel=0 note=52 velocity=0 time=692
note_on channel=0 note=50 velocity=127 time=0
note_off channel=0 note=50 velocity=0 time=692
note_on channel=0 note=52 velocity=127 time=0
note_off channel=0 note=52 velocity=0 time=692
note_on channel=0 note=59 velocity=127 time=0
note_off channel=0 note=59 velocity=0 time=346
note_on channel=0 note=86 velocity=127 time=0
note_off channel=0 note=86 velocity=0 time=346
note_on channel=0 note=45 velocity=127 time=0
note_off channel=0 note=45 velocity=0 time=346
note_on channel=0 note=59 velocity=127 time=0
note_off channel=0 note=59 velocity=0 time=346
note_on channel=0 note=61 velocity=127 time=0
note_off channel=0 note=61 velocity=0 time=346
note_on channel=0 note=76 velocity=127 time=0
note_off channel=0 note=76 velocity=0 time=692
note_on channel=0 note=69 velocity=127 time=0
note_off channel=0 note=69 velocity=0 time=346
note_on channel=0 note=54 velocity=127 time=0
note_off channel=0 note=54 velocity=0 time=692
note_on channel=0 note=57 velocity=127 time=0
note_off channel=0 note=57 velocity=0 time=692
note_on channel=0 note=59 velocity=127 time=0
note_off channel=0 note=59 velocity=0 time=346
note_on channel=0 note=71 velocity=127 time=0
note_off channel=0 note=71 velocity=0 time=1384
note_on channel=0 note=80 velocity=127 time=0
note_off channel=0 note=80 velocity=0 time=346
note_on channel=0 note=52 velocity=127 time=0
note_off channel=0 note=52 velocity=0 time=346
note_on channel=0 note=81 velocity=127 time=0
note_off channel=0 note=81 velocity=0 time=346
note_on channel=0 note=71 velocity=127 time=0
note_off channel=0 note=71 velocity=0 time=692
note_on channel=0 note=57 velocity=127 time=0
note_off channel=0 note=57 velocity=0 time=692
note_on channel=0 note=83 velocity=127 time=0
note_off channel=0 note=83 velocity=0 time=346
note_on channel=0 note=81 velocity=127 time=0
note_off channel=0 note=81 velocity=0 time=173
note_on channel=0 note=69 velocity=127 time=0
note_off channel=0 note=69 velocity=0 time=346
note_on channel=0 note=49 velocity=127 time=0
note_off channel=0 note=49 velocity=0 time=692
MetaMessage('end_of_track', time=0)
